<svg xmlns="http://www.w3.org/2000/svg" viewBox="0 0 960 240" role="img" aria-labelledby="title desc">
  <title id="title">Black2Africa wordmark</title>
  <desc id="desc">Generated wordmark lockup for the brand system.</desc>
  <rect width="960" height="240" rx="40" fill="#F7F2EA"/>
  <g transform="translate(48 48)">
    <rect width="144" height="144" rx="36" fill="#151210"/>
    <path d="M42 88c22-40 50-62 86-68-10 20-14 40-10 60 4 18 14 34 30 48-42 0-78-14-106-40Z" fill="#B43B2A"/>
    <path d="M43 101c28-14 55-20 82-18-14 13-32 22-56 28-10 2-19 3-28 2 0-4 1-8 2-12Z" fill="#245C73"/>
  </g>
  <text x="232" y="128" fill="#201915" font-family="Arial, sans-serif" font-size="58" font-weight="700" letter-spacing="0">Black2Africa</text>
  <text x="236" y="166" fill="#75695E" font-family="Arial, sans-serif" font-size="22" letter-spacing="4">BRAND SYSTEM</text>
</svg>
